<svg width="55" height="55" viewBox="0 0 55 55" fill="none" xmlns="http://www.w3.org/2000/svg">
<g id="Group">
<path id="Vector" d="M16.2526 52.6018L18.3204 53.1821L22.3881 53.8404L29.8302 53.4148L40.2913 49.1962L49.1961 39.3027L52.3672 28.9821L50.9631 21.8208L46.0485 12.6936L39.4193 5.39191L30.8132 0.960046L27.0177 0.230957H23.9268C10.4273 1.98275 0 13.5234 0 27.5003C0 38.681 6.6727 48.3025 16.2526 52.6018Z" fill="#110B56"/>
<path id="Vector_2" d="M27.4997 0C26.2887 0 25.0961 0.07902 23.9264 0.230933C36.8877 1.94408 46.8907 13.0359 46.8907 26.4652C46.8907 41.0815 35.0418 52.9304 20.4255 52.9304C19.0053 52.9304 17.6119 52.8172 16.2522 52.6018C19.6857 54.1427 23.4923 55.0007 27.4997 55.0007C42.6877 55.0007 55 42.6883 55 27.5003C55 12.3123 42.6877 0 27.4997 0Z" fill="#554F97"/>
<g id="Group_2">
<path id="Vector_3" d="M23.3634 18.4854C23.2064 18.4853 23.0509 18.5162 22.9058 18.5763C22.7607 18.6364 22.6289 18.7245 22.5179 18.8355C22.4068 18.9465 22.3188 19.0784 22.2587 19.2234C22.1986 19.3685 22.1677 19.524 22.1677 19.681V35.3202C22.1677 35.9806 22.7029 36.5159 23.3634 36.5159C24.0238 36.5159 24.559 35.9806 24.559 35.3202V19.681C24.5591 19.524 24.5281 19.3685 24.4681 19.2234C24.408 19.0784 24.3199 18.9465 24.2089 18.8355C24.0979 18.7245 23.966 18.6364 23.821 18.5763C23.6759 18.5162 23.5204 18.4853 23.3634 18.4854ZM34.0779 18.7166H29.7795C29.1409 18.7166 28.5839 19.2248 28.5839 19.9283V34.8426C28.5839 35.8056 29.1672 36.2848 29.8105 36.2848C30.2207 36.2848 33.1895 36.2692 34.2246 36.2513C36.3427 36.2142 38.2287 35.2547 39.5353 33.5496C40.7394 31.978 41.4025 29.8298 41.4025 27.5008C41.4024 22.2467 38.4588 18.7166 34.0779 18.7166ZM34.1828 33.86C33.4581 33.8725 32.0301 33.8821 31.0021 33.8875C30.9961 32.1462 30.9864 28.962 30.9864 27.4839C30.9864 26.2469 30.9807 22.912 30.9776 21.1079H34.0779C37.7151 21.1079 39.0109 24.4101 39.0109 27.5005C39.0109 31.1953 37.0255 33.8103 34.1828 33.86ZM16.1946 26.4627C16.9486 25.6155 17.408 24.5003 17.408 23.2796C17.408 20.636 15.2572 18.4854 12.6137 18.4854H8.07091C7.91389 18.4853 7.7584 18.5162 7.61332 18.5763C7.46825 18.6364 7.33643 18.7245 7.2254 18.8355C7.11437 18.9465 7.0263 19.0784 6.96622 19.2234C6.90614 19.3685 6.87522 19.524 6.87524 19.681V35.3202C6.87537 35.6373 7.0014 35.9414 7.22564 36.1656C7.44988 36.3898 7.75397 36.5158 8.07107 36.5159H8.07641C8.11835 36.5157 12.2701 36.4973 13.4073 36.4973C16.3878 36.4973 18.8126 34.0725 18.8126 31.0919C18.8123 29.1307 17.7621 27.4102 16.1946 26.4627ZM12.6135 20.8768C13.9385 20.8768 15.0163 21.9547 15.0163 23.2796C15.0163 24.6046 13.9385 25.6824 12.6135 25.6824C12.2799 25.6824 11.6513 25.6842 10.9661 25.6867H9.26658V20.8768H12.6135ZM13.407 34.106C12.655 34.106 10.5975 34.114 9.26658 34.1193V28.0848C9.78295 28.0827 10.3997 28.0802 10.976 28.0782H13.4069C15.0686 28.0782 16.4206 29.4303 16.4206 31.0919C16.4208 32.754 15.0688 34.106 13.407 34.106Z" fill="#FAF7F8"/>
</g>
</g>
</svg>
