<svg width="24" height="21" viewBox="0 0 24 21" fill="none" xmlns="http://www.w3.org/2000/svg">
<g id="Group">
<path id="Vector" d="M0.923077 17.3077H4.61538C4.61538 16.2895 5.44338 15.4615 6.46154 15.4615H8.30769C9.32585 15.4615 10.1538 16.2895 10.1538 17.3077H23.0769C23.3217 17.3077 23.5565 17.4049 23.7296 17.5781C23.9027 17.7512 24 17.986 24 18.2308C24 18.4756 23.9027 18.7104 23.7296 18.8835C23.5565 19.0566 23.3217 19.1538 23.0769 19.1538H10.1538C10.1538 20.172 9.32585 21 8.30769 21H6.46154C5.44338 21 4.61538 20.172 4.61538 19.1538H0.923077C0.678262 19.1538 0.443473 19.0566 0.270363 18.8835C0.0972524 18.7104 0 18.4756 0 18.2308C0 17.986 0.0972524 17.7512 0.270363 17.5781C0.443473 17.4049 0.678262 17.3077 0.923077 17.3077ZM23.0769 11.7692H17.5385C17.5385 12.7874 16.7105 13.6154 15.6923 13.6154H13.8462C12.828 13.6154 12 12.7874 12 11.7692H0.923077C0.678262 11.7692 0.443473 11.672 0.270363 11.4989C0.0972524 11.3258 0 11.091 0 10.8462C0 10.6013 0.0972524 10.3666 0.270363 10.1934C0.443473 10.0203 0.678262 9.92308 0.923077 9.92308H12C12 8.90492 12.828 8.07692 13.8462 8.07692H15.6923C16.7105 8.07692 17.5385 8.90492 17.5385 9.92308H23.0769C23.3217 9.92308 23.5565 10.0203 23.7296 10.1934C23.9027 10.3666 24 10.6013 24 10.8462C24 11.091 23.9027 11.3258 23.7296 11.4989C23.5565 11.672 23.3217 11.7692 23.0769 11.7692ZM23.0769 4.38462H10.1538C10.1538 5.40277 9.32585 6.23077 8.30769 6.23077H6.46154C5.44338 6.23077 4.61538 5.40277 4.61538 4.38462H0.923077C0.678262 4.38462 0.443473 4.28736 0.270363 4.11425C0.0972524 3.94114 0 3.70635 0 3.46154C0 3.21672 0.0972524 2.98194 0.270363 2.80882C0.443473 2.63571 0.678262 2.53846 0.923077 2.53846H4.61538C4.61538 1.52031 5.44338 0.692308 6.46154 0.692308H8.30769C9.32585 0.692308 10.1538 1.52031 10.1538 2.53846H23.0769C23.3217 2.53846 23.5565 2.63571 23.7296 2.80882C23.9027 2.98194 24 3.21672 24 3.46154C24 3.70635 23.9027 3.94114 23.7296 4.11425C23.5565 4.28736 23.3217 4.38462 23.0769 4.38462Z" fill="white" fill-opacity="0.6"/>
</g>
</svg>
