<svg width="26" height="26" viewBox="0 0 26 26" fill="none" xmlns="http://www.w3.org/2000/svg">
<g id="Frame" clip-path="url(#clip0_2418_3946)">
<g id="Group">
<g id="Layer 2">
<g id="03.Instagram">
<path id="Vector" d="M26 13C26 5.8203 20.1797 0 13 0C5.8203 0 0 5.8203 0 13C0 20.1797 5.8203 26 13 26C20.1797 26 26 20.1797 26 13Z" fill="url(#paint0_linear_2418_3946)"/>
<g id="Group_2">
<path id="Vector_2" opacity="0.1" d="M22.7841 4.4473C20.8888 7.92651 18.2084 11.5152 14.8592 14.8644C11.51 18.2136 7.9213 20.8889 4.44722 22.7841C4.22942 22.5948 4.01788 22.3976 3.81262 22.1923C2.5719 20.993 1.58236 19.5587 0.901706 17.973C0.22105 16.3873 -0.137102 14.682 -0.151868 12.9565C-0.166633 11.2309 0.162284 9.5197 0.815704 7.9226C1.46912 6.3255 2.43397 4.87446 3.65399 3.65411C4.874 2.43376 6.32476 1.4685 7.92168 0.814637C9.51861 0.160771 11.2297 -0.168624 12.9553 -0.15434C14.6808 -0.140056 16.3862 0.217621 17.9721 0.897834C19.558 1.57805 20.9926 2.56718 22.1922 3.80757C22.3975 4.01283 22.5948 4.22608 22.7841 4.4473Z" fill="white"/>
<path id="Vector_3" d="M16.0793 6.15771H9.92136C8.92331 6.15771 7.96614 6.55419 7.26041 7.25992C6.55468 7.96565 6.1582 8.92282 6.1582 9.92087V16.0788C6.1582 17.0768 6.55468 18.034 7.26041 18.7397C7.96614 19.4455 8.92331 19.8419 9.92136 19.8419H16.0793C17.0773 19.8419 18.0345 19.4455 18.7402 18.7397C19.4459 18.034 19.8424 17.0768 19.8424 16.0788V9.92087C19.8424 8.92282 19.4459 7.96565 18.7402 7.25992C18.0345 6.55419 17.0773 6.15771 16.0793 6.15771ZM18.645 15.5382C18.645 16.3621 18.3178 17.1522 17.7352 17.7347C17.1527 18.3173 16.3626 18.6446 15.5387 18.6446H10.4619C9.63804 18.6446 8.84794 18.3173 8.26539 17.7347C7.68284 17.1522 7.35557 16.3621 7.35557 15.5382V10.4614C7.35557 9.63755 7.68284 8.84745 8.26539 8.2649C8.84794 7.68235 9.63804 7.35508 10.4619 7.35508H15.5387C16.3626 7.35508 17.1527 7.68235 17.7352 8.2649C18.3178 8.84745 18.645 9.63755 18.645 10.4614V15.5382Z" fill="white"/>
<path id="Vector_4" d="M15.4955 10.5297L15.463 10.4972L15.4356 10.4698C14.7889 9.82531 13.9129 9.46361 12.9998 9.46404C12.5387 9.46717 12.0828 9.56112 11.658 9.74052C11.2332 9.91993 10.848 10.1813 10.5243 10.5096C10.2005 10.8379 9.94465 11.2269 9.77127 11.6541C9.59789 12.0814 9.51039 12.5386 9.51377 12.9997C9.51307 13.9354 9.88192 14.8336 10.5401 15.4988C10.8625 15.8251 11.2466 16.0839 11.6701 16.2601C12.0936 16.4363 12.548 16.5264 13.0067 16.5251C13.6947 16.5107 14.3637 16.2963 14.932 15.9082C15.5003 15.5201 15.9434 14.975 16.2073 14.3394C16.4711 13.7038 16.5443 13.0052 16.4179 12.3287C16.2915 11.6522 15.971 11.0272 15.4955 10.5297ZM12.9998 15.3192C12.5397 15.3256 12.0881 15.1951 11.7025 14.9442C11.3168 14.6932 11.0144 14.3333 10.8339 13.9101C10.6533 13.4868 10.6027 13.0195 10.6885 12.5674C10.7743 12.1154 10.9926 11.6991 11.3157 11.3714C11.6387 11.0438 12.0519 10.8196 12.5027 10.7275C12.9535 10.6353 13.4215 10.6793 13.8473 10.8538C14.273 11.0284 14.6372 11.3256 14.8935 11.7078C15.1499 12.0899 15.2867 12.5396 15.2868 12.9997C15.289 13.3022 15.2317 13.6022 15.1179 13.8825C15.0042 14.1628 14.8363 14.4179 14.624 14.6333C14.4116 14.8488 14.1588 15.0202 13.8801 15.1379C13.6015 15.2555 13.3023 15.3172 12.9998 15.3192ZM17.5207 9.30154C17.5216 9.4113 17.5009 9.52016 17.4597 9.62189C17.4184 9.72363 17.3576 9.81623 17.2805 9.8944C17.2034 9.97257 17.1117 10.0348 17.0106 10.0775C16.9095 10.1201 16.8009 10.1424 16.6911 10.1431C16.5823 10.1431 16.4745 10.1214 16.3741 10.0794C16.2737 10.0374 16.1826 9.97595 16.1061 9.89851C15.9903 9.78094 15.9114 9.63193 15.8794 9.46998C15.8474 9.30803 15.8637 9.14025 15.9262 8.98744C15.9886 8.83463 16.0946 8.70352 16.2309 8.61036C16.3672 8.51721 16.5278 8.4661 16.6928 8.46338C16.886 8.46334 17.0731 8.53115 17.2214 8.65496L17.2385 8.67206C17.2661 8.69452 17.2913 8.71974 17.3138 8.74733L17.3326 8.76785C17.455 8.9187 17.5215 9.10726 17.5207 9.30154Z" fill="white"/>
</g>
</g>
</g>
</g>
</g>
<defs>
<linearGradient id="paint0_linear_2418_3946" x1="3.80763" y1="3.80763" x2="22.1924" y2="22.1924" gradientUnits="userSpaceOnUse">
<stop stop-color="#FAE100"/>
<stop offset="0.15" stop-color="#FCB720"/>
<stop offset="0.3" stop-color="#FF7950"/>
<stop offset="0.5" stop-color="#FF1C74"/>
<stop offset="1" stop-color="#6C1CD1"/>
</linearGradient>
<clipPath id="clip0_2418_3946">
<rect width="26" height="26" fill="white"/>
</clipPath>
</defs>
</svg>
