<svg width="26" height="26" viewBox="0 0 26 26" fill="none" xmlns="http://www.w3.org/2000/svg">
<g id="Frame" clip-path="url(#clip0_2418_3932)">
<g id="Group">
<path id="Vector" d="M13 25.9995C20.1797 25.9995 26 20.1792 26 12.9995C26 5.81981 20.1797 -0.000488281 13 -0.000488281C5.8203 -0.000488281 0 5.81981 0 12.9995C0 20.1792 5.8203 25.9995 13 25.9995Z" fill="#007AB9"/>
<path id="Vector_2" d="M20.7672 14.0455V19.4051H17.6598V14.4047C17.6598 13.1492 17.2112 12.2917 16.0861 12.2917C15.2275 12.2917 14.7174 12.869 14.4922 13.4279C14.4104 13.6277 14.3893 13.9051 14.3893 14.1853V19.4049H11.2817C11.2817 19.4049 11.3234 10.9358 11.2817 10.0592H14.3895V11.3836C14.3833 11.394 14.3745 11.4042 14.3689 11.4141H14.3895V11.3836C14.8025 10.7481 15.5389 9.83972 17.1901 9.83972C19.2345 9.83972 20.7672 11.1755 20.7672 14.0455ZM8.03088 5.5542C6.9679 5.5542 6.27246 6.25196 6.27246 7.16871C6.27246 8.066 6.94774 8.78392 7.9901 8.78392H8.01026C9.09409 8.78392 9.76799 8.066 9.76799 7.16871C9.74736 6.25196 9.09409 5.5542 8.03088 5.5542ZM6.45716 19.4051H9.56359V10.0592H6.45716V19.4051Z" fill="#F1F2F2"/>
</g>
</g>
<defs>
<clipPath id="clip0_2418_3932">
<rect width="26" height="26" fill="white"/>
</clipPath>
</defs>
</svg>
