<svg width="54" height="54" viewBox="0 0 54 54" fill="none" xmlns="http://www.w3.org/2000/svg">
<path id="Vector" fill-rule="evenodd" clip-rule="evenodd" d="M30.9438 40.8253C31.6267 40.2514 32.1757 39.535 32.5524 38.7264C32.9291 37.9178 33.1244 37.0366 33.1244 36.1446C33.1245 35.2525 32.9294 34.3713 32.5528 33.5627C32.1763 32.754 31.6273 32.0376 30.9445 31.4635C33.6753 32.2577 36.2087 33.865 38.2613 36.1443C36.2087 38.423 33.6753 40.0311 30.9438 40.8253ZM15.7392 36.1443C17.7925 33.865 20.3244 32.2577 23.0566 31.4627C22.3734 32.0366 21.8242 32.753 21.4473 33.5617C21.0705 34.3704 20.8752 35.2518 20.8752 36.144C20.8752 37.0362 21.0705 37.9176 21.4473 38.7263C21.8242 39.535 22.3734 40.2514 23.0566 40.8253C20.3249 40.0311 17.7925 38.423 15.7392 36.1443ZM27 28.3651C21.714 28.3651 16.6443 30.9119 13.0921 35.3532C12.9122 35.5774 12.8141 35.8562 12.8141 36.1437C12.8141 36.4311 12.9122 36.7099 13.0921 36.9341C16.6443 41.3769 21.714 43.9237 27 43.9237C32.286 43.9237 37.3556 41.3769 40.9084 36.9341C41.0881 36.7098 41.1859 36.431 41.1859 36.1437C41.1859 35.8563 41.0881 35.5775 40.9084 35.3532C37.3555 30.9119 32.2858 28.3651 27 28.3651ZM41.8645 51.0528C42.5078 51.0524 43.1246 50.7967 43.5796 50.3419C44.0345 49.887 44.2903 49.2703 44.2909 48.627V26.1474L27 12.8673L9.69971 26.155C9.70563 26.2045 9.70891 26.2543 9.70952 26.3041V48.6272C9.70991 49.2704 9.96561 49.8872 10.4204 50.3421C10.8753 50.7969 11.4921 51.0526 12.1353 51.053L41.8645 51.0528ZM51.9769 18.8532L46.8194 14.892C46.8202 14.8709 46.8224 14.8513 46.8224 14.8302V1.2653C46.8223 0.929725 46.6889 0.607944 46.4515 0.370707C46.2142 0.13347 45.8923 0.000200432 45.5568 0.000200462H38.1586C37.8229 0.000200462 37.501 0.133543 37.2636 0.370893C37.0263 0.608244 36.8929 0.930161 36.8929 1.26583V7.26784L27.7707 0.261658C27.5496 0.0919734 27.2786 0 26.9999 0C26.7211 0 26.4501 0.0919734 26.229 0.261658L2.02285 18.8533C0.93419 19.6921 0.222569 20.9283 0.0440178 22.291C-0.134534 23.6537 0.234557 25.0315 1.07036 26.1225L1.13069 26.2009C1.82113 27.0975 2.78561 27.7439 3.87734 28.0418C4.96906 28.3397 6.12822 28.2728 7.17837 27.8511V48.6272C7.17971 49.9415 7.7024 51.2015 8.63174 52.1309C9.56107 53.0602 10.8211 53.5829 12.1354 53.5842H41.8645C43.1788 53.5828 44.4387 53.06 45.368 52.1307C46.2973 51.2014 46.8201 49.9414 46.8216 48.6272V27.8526C47.4324 28.0991 48.0851 28.2255 48.7438 28.2249C48.9739 28.2247 49.2037 28.2098 49.4318 28.1804C50.1071 28.0941 50.7586 27.8747 51.3485 27.5349C51.9384 27.1951 52.4551 26.7417 52.8686 26.2009L52.9304 26.1218C53.7654 25.0305 54.1339 23.6528 53.9551 22.2904C53.7763 20.9281 53.0648 19.6921 51.9764 18.8533L51.9769 18.8532ZM25.7279 36.1443C25.7279 35.8087 25.8612 35.4868 26.0986 35.2494C26.3359 35.0121 26.6579 34.8787 26.9935 34.8787H27.0071C27.3428 34.8787 27.6647 35.0121 27.9021 35.2494C28.1394 35.4868 28.2728 35.8087 28.2728 36.1443C28.2728 36.48 28.1394 36.8019 27.9021 37.0393C27.6647 37.2766 27.3428 37.41 27.0071 37.41H26.9935C26.6579 37.41 26.3359 37.2766 26.0986 37.0393C25.8612 36.8019 25.7279 36.48 25.7279 36.1443Z" fill="#C9084A"/>
</svg>
