<svg width="26" height="26" viewBox="0 0 26 26" fill="none" xmlns="http://www.w3.org/2000/svg">
<g id="Frame" clip-path="url(#clip0_2418_3942)">
<g id="Group">
<path id="Vector" d="M12.9998 26C20.1793 26 25.9995 20.1798 25.9995 13.0003C25.9995 5.82068 20.1793 0.000488281 12.9998 0.000488281C5.8202 0.000488281 0 5.82068 0 13.0003C0 20.1798 5.8202 26 12.9998 26Z" fill="#CB2027"/>
<path id="Vector_2" d="M14.0487 17.408C13.066 17.332 12.653 16.8447 11.8823 16.3768C11.4587 18.5994 10.941 20.7299 9.40759 21.8429C8.9337 18.4837 10.1023 15.9606 10.645 13.2825C9.71997 11.7252 10.7563 8.59082 12.7075 9.36319C15.1089 10.3128 10.6284 15.1535 13.6363 15.7581C16.7765 16.3893 18.0584 10.3094 16.1109 8.33175C13.2972 5.47656 7.92079 8.26686 8.58192 12.3542C8.74298 13.3534 9.77558 13.6567 8.99441 15.0356C7.19361 14.6367 6.65645 13.2164 6.72551 11.323C6.83697 8.22353 9.51048 6.05334 12.1921 5.75302C15.5835 5.37344 18.7666 6.99835 19.206 10.1884C19.7003 13.7888 17.6749 17.688 14.0487 17.408Z" fill="#F1F2F2"/>
</g>
</g>
<defs>
<clipPath id="clip0_2418_3942">
<rect width="26" height="26" fill="white"/>
</clipPath>
</defs>
</svg>
