<svg width="55" height="55" viewBox="0 0 55 55" fill="none" xmlns="http://www.w3.org/2000/svg">
<g id="Group 14116">
<g id="Ellipse 174" filter="url(#filter0_d_1328_5876)">
<circle cx="20.5" cy="20.5" r="20.5" transform="matrix(-1 0 0 1 48 6)" fill="#F4F5F7"/>
</g>
<path id="Vector" d="M31.2028 36.7872L21.3225 27.3868C21.2052 27.2749 21.122 27.1537 21.0727 27.0231C21.0235 26.8925 20.9992 26.7527 21 26.6034C21 26.4542 21.0246 26.3143 21.0739 26.1838C21.1232 26.0532 21.206 25.932 21.3225 25.8201L31.2028 16.3917C31.4764 16.1306 31.8185 16 32.2289 16C32.6394 16 32.9912 16.1399 33.2844 16.4197C33.5775 16.6994 33.7241 17.0258 33.7241 17.3989C33.7241 17.7719 33.5775 18.0983 33.2844 18.3781L24.6648 26.6034L33.2844 34.8288C33.558 35.0899 33.6948 35.4119 33.6948 35.7946C33.6948 36.1773 33.5482 36.5082 33.255 36.7872C32.9619 37.067 32.6198 37.2069 32.2289 37.2069C31.838 37.2069 31.496 37.067 31.2028 36.7872Z" fill="#DC044D"/>
</g>
<defs>
<filter id="filter0_d_1328_5876" x="0" y="0" width="55" height="55" filterUnits="userSpaceOnUse" color-interpolation-filters="sRGB">
<feFlood flood-opacity="0" result="BackgroundImageFix"/>
<feColorMatrix in="SourceAlpha" type="matrix" values="0 0 0 0 0 0 0 0 0 0 0 0 0 0 0 0 0 0 127 0" result="hardAlpha"/>
<feOffset dy="1"/>
<feGaussianBlur stdDeviation="3.5"/>
<feComposite in2="hardAlpha" operator="out"/>
<feColorMatrix type="matrix" values="0 0 0 0 0 0 0 0 0 0 0 0 0 0 0 0 0 0 0.25 0"/>
<feBlend mode="normal" in2="BackgroundImageFix" result="effect1_dropShadow_1328_5876"/>
<feBlend mode="normal" in="SourceGraphic" in2="effect1_dropShadow_1328_5876" result="shape"/>
</filter>
</defs>
</svg>
