<svg width="20" height="20" viewBox="0 0 20 20" fill="none" xmlns="http://www.w3.org/2000/svg">
<g id="Group">
<path id="Vector" d="M2.37309 13.85C-0.791023 10.6858 -0.79096 5.53731 2.37309 2.37313C5.53726 -0.791044 10.6857 -0.791044 13.8498 2.37313C16.5342 5.0575 16.9408 9.04985 15.0706 12.1674C15.0706 12.1674 14.9362 12.3928 15.1177 12.5741L19.2581 16.7145C20.0822 17.5386 20.2784 18.6909 19.5476 19.4218L19.4217 19.5475C18.6909 20.2785 17.5385 20.0824 16.7145 19.2582L12.5828 15.1265C12.3926 14.9364 12.1673 15.0707 12.1673 15.0707C9.04981 16.9409 5.05746 16.5344 2.37309 13.85ZM12.3516 12.3517C14.6896 10.0137 14.6895 6.20956 12.3515 3.87156C10.0135 1.53362 6.20939 1.53356 3.87145 3.87156C1.53345 6.2095 1.53345 10.0137 3.87145 12.3517C6.20945 14.6896 10.0135 14.6896 12.3516 12.3517Z" fill="white"/>
<path id="Vector_2" d="M11.8334 7.63045C11.9423 7.63045 12.0529 7.60906 12.1595 7.56402C12.5855 7.38375 12.7847 6.89228 12.6045 6.46628C11.4714 3.78867 8.37129 2.53211 5.69375 3.66516C5.26781 3.84543 5.06853 4.3369 5.2488 4.7629C5.42914 5.18891 5.92047 5.38806 6.34661 5.20785C8.17343 4.43483 10.2888 5.29219 11.0617 7.11901C11.197 7.43851 11.5071 7.63045 11.8334 7.63045Z" fill="white"/>
</g>
</svg>
