<svg width="55" height="56" viewBox="0 0 55 56" fill="none" xmlns="http://www.w3.org/2000/svg">
<g id="Group">
<path id="Vector" d="M54.3288 51.0947L48.5071 45.2731C49.7517 43.4041 50.4159 41.2088 50.4164 38.9633C50.4164 32.6443 45.2755 27.5034 38.9565 27.5034C32.6375 27.5034 27.4966 32.6443 27.4966 38.9633C27.4966 45.2823 32.6375 50.4232 38.9565 50.4232C41.202 50.4228 43.3972 49.7585 45.2663 48.514L51.0879 54.3356C51.5177 54.7654 52.1006 55.0068 52.7083 55.0068C53.3161 55.0068 53.899 54.7654 54.3288 54.3356C54.7585 53.9058 55 53.323 55 52.7152C55 52.1074 54.7585 51.5245 54.3288 51.0947ZM38.9565 45.8392C35.1655 45.8392 32.0805 42.7542 32.0805 38.9633C32.0805 35.1724 35.1655 32.0874 38.9565 32.0874C42.7474 32.0874 45.8324 35.1724 45.8324 38.9633C45.8324 42.7542 42.7474 45.8392 38.9565 45.8392Z" fill="#C9084A"/>
<path id="Vector_2" d="M47.0908 21.6085L38.9566 13.6553V4.58368C38.9566 3.97581 38.7151 3.39283 38.2853 2.963C37.8554 2.53317 37.2725 2.2917 36.6646 2.2917C36.0567 2.2917 35.4737 2.53317 35.0439 2.963C34.6141 3.39283 34.3726 3.97581 34.3726 4.58368V9.17222L25.6608 0.652935C25.2326 0.234359 24.6575 0 24.0587 0C23.4599 0 22.8848 0.234359 22.4566 0.652935L1.02662 21.6085C0.540717 22.0872 0.207957 22.6994 0.0705648 23.3675C-0.0668275 24.0356 -0.00265846 24.7294 0.25493 25.361C0.512518 25.9926 0.951914 26.5334 1.51736 26.9148C2.08282 27.2963 2.74883 27.5011 3.43091 27.5035H6.86887V40.1093C6.86887 43.2677 9.43818 45.8393 12.5988 45.8393H20.6207C21.2286 45.8393 21.8116 45.5978 22.2414 45.168C22.6712 44.7381 22.9127 44.1552 22.9127 43.5473C22.9127 42.9394 22.6712 42.3565 22.2414 41.9266C21.8116 41.4968 21.2286 41.2553 20.6207 41.2553H12.5988C12.2949 41.2553 12.0034 41.1346 11.7885 40.9197C11.5736 40.7048 11.4528 40.4133 11.4528 40.1093V25.2115C11.4528 24.6036 11.2114 24.0206 10.7815 23.5908C10.3517 23.161 9.76872 22.9195 9.16085 22.9195H6.24316L24.0587 5.49588L43.8843 24.8837C44.0992 25.0946 44.3537 25.261 44.6331 25.3734C44.9124 25.4857 45.2113 25.5418 45.5124 25.5384C45.8135 25.535 46.1109 25.4722 46.3877 25.3535C46.6645 25.2349 46.9151 25.0628 47.1252 24.8471C47.3356 24.6322 47.5017 24.3779 47.6138 24.0989C47.726 23.8198 47.7821 23.5214 47.7789 23.2206C47.7757 22.9199 47.7133 22.6227 47.5952 22.3461C47.4772 22.0695 47.3058 21.8188 47.0908 21.6085Z" fill="#C9084A"/>
</g>
</svg>
