<svg width="24" height="24" viewBox="0 0 24 24" fill="none" xmlns="http://www.w3.org/2000/svg">
<g id="Send Icon">
<circle id="Oval" cx="12" cy="12.0005" r="12" fill="#100A55"/>
<g id="send">
<path id="Path" d="M7.27021 12.164C6.89699 12.3598 6.91247 12.6466 7.30376 12.8014L8.46312 13.2601C8.85473 13.4156 9.44731 13.3308 9.77925 13.0717L14.8138 9.1014C15.1447 8.84108 15.1802 8.87947 14.8928 9.18721L10.9128 13.4472C10.6244 13.754 10.7096 14.1308 11.1025 14.2827L11.2383 14.3356C11.6312 14.4875 12.2715 14.7427 12.6618 14.9014L13.9476 15.425C14.3383 15.5837 14.7557 15.3966 14.8667 14.9901L16.8263 7.78689C16.937 7.38043 16.7221 7.20785 16.3489 7.40334L7.27021 12.164Z" fill="white"/>
<path id="Path_2" d="M10.4517 16.88C10.4288 16.9487 11.2446 15.6987 11.2446 15.6987C11.4753 15.3464 11.3443 14.9261 10.9546 14.7668L10.065 14.4026C9.67529 14.2432 9.48851 14.4303 9.6498 14.8197C9.6498 14.8197 10.4753 16.8093 10.4517 16.88Z" fill="white"/>
</g>
</g>
</svg>
