<svg width="46" height="40" viewBox="0 0 46 40" fill="none" xmlns="http://www.w3.org/2000/svg">
<g id="Group 14082">
<g id="Rectangle 33" filter="url(#filter0_d_1328_3432)">
<path d="M42 8C42 4.68629 39.3137 2 36 2H10C6.68629 2 4 4.68629 4 8V28C4 31.3137 6.68629 34 10 34H36C39.3137 34 42 31.3137 42 28V8Z" fill="#F3F5F7"/>
</g>
<path id="Vector" d="M26.8203 25.656L18.2788 18.1684C18.1774 18.0793 18.1055 17.9827 18.0629 17.8787C18.0203 17.7747 17.9993 17.6633 18 17.5444C18 17.4256 18.0213 17.3142 18.0639 17.2102C18.1065 17.1062 18.1781 17.0096 18.2788 16.9205L26.8203 9.41062C27.0568 9.20263 27.3525 9.09863 27.7074 9.09863C28.0622 9.09863 28.3664 9.21006 28.6198 9.4329C28.8733 9.65574 29 9.91573 29 10.2129C29 10.51 28.8733 10.77 28.6198 10.9928L21.1682 17.5444L28.6198 24.0961C28.8564 24.3041 28.9747 24.5605 28.9747 24.8653C28.9747 25.1702 28.8479 25.4337 28.5945 25.656C28.341 25.8788 28.0453 25.9903 27.7074 25.9903C27.3694 25.9903 27.0737 25.8788 26.8203 25.656Z" fill="#DC044D"/>
</g>
<defs>
<filter id="filter0_d_1328_3432" x="0" y="0" width="46" height="40" filterUnits="userSpaceOnUse" color-interpolation-filters="sRGB">
<feFlood flood-opacity="0" result="BackgroundImageFix"/>
<feColorMatrix in="SourceAlpha" type="matrix" values="0 0 0 0 0 0 0 0 0 0 0 0 0 0 0 0 0 0 127 0" result="hardAlpha"/>
<feOffset dy="2"/>
<feGaussianBlur stdDeviation="2"/>
<feComposite in2="hardAlpha" operator="out"/>
<feColorMatrix type="matrix" values="0 0 0 0 0 0 0 0 0 0 0 0 0 0 0 0 0 0 0.25 0"/>
<feBlend mode="normal" in2="BackgroundImageFix" result="effect1_dropShadow_1328_3432"/>
<feBlend mode="normal" in="SourceGraphic" in2="effect1_dropShadow_1328_3432" result="shape"/>
</filter>
</defs>
</svg>
