<svg width="26" height="26" viewBox="0 0 26 26" fill="none" xmlns="http://www.w3.org/2000/svg">
<g id="Frame" clip-path="url(#clip0_2418_3936)">
<g id="Group">
<g id="Layer 2">
<g id="04.youtube">
<path id="Vector" d="M13 26C20.1797 26 26 20.1797 26 13C26 5.8203 20.1797 0 13 0C5.8203 0 0 5.8203 0 13C0 20.1797 5.8203 26 13 26Z" fill="#F20000"/>
<path id="Vector_2" d="M19.1951 9.87335C18.9351 9.06598 18.0747 8.58875 17.2759 8.47756C14.4285 8.1748 11.557 8.1748 8.70957 8.47756C7.91759 8.58875 7.0572 9.07283 6.7972 9.87335C6.39182 11.9388 6.39182 14.0633 6.7972 16.1287C7.06404 16.9344 7.92444 17.4134 8.72325 17.5245C11.5708 17.8256 14.4421 17.8256 17.2896 17.5245C18.0815 17.4134 18.9419 16.9276 19.2019 16.1287C19.6051 14.0629 19.6027 11.9383 19.1951 9.87335ZM11.4447 15.4907V10.5097L15.5004 13.0002C14.1336 13.8401 12.8063 14.6577 11.4447 15.4907Z" fill="white"/>
</g>
</g>
</g>
</g>
<defs>
<clipPath id="clip0_2418_3936">
<rect width="26" height="26" fill="white"/>
</clipPath>
</defs>
</svg>
